<?xml version="1.0" encoding="UTF-8"?>
<svg id="Layer_2" data-name="Layer 2" xmlns="http://www.w3.org/2000/svg" viewBox="0 0 1291.29 271.24">
  <defs>
    <style>
      .cls-1 {
        fill: #3bc6ff;
      }

      .cls-2 {
        fill: #0fb8fd;
      }
    </style>
  </defs>
  <g id="Artwork">
    <g>
      <g>
        <polygon class="cls-2" points="171.82 271.24 0 0 0 271.24 171.82 271.24"/>
        <polygon class="cls-1" points="171.82 0 0 271.24 0 0 171.82 0"/>
      </g>
      <g>
        <path class="cls-2" d="M225.78,217.28V53.39h20.97v163.89h-20.97ZM234.8,142.66v-19.02h52.19v19.02h-52.19ZM331.87,217.28l-60.73-84.14,58.04-79.75h25.36l-59.02,79.75,61.95,84.14h-25.61Z"/>
        <path class="cls-2" d="M404.79,217.28V53.39h107.8v18.29h-86.09v53.65h62.68v17.8h-62.68v55.85h89.02v18.29h-110.72Z"/>
        <path class="cls-2" d="M612.82,217.28v-70.97l-62.43-92.92h24.88l48.29,72.92,48.04-72.92h25.12l-62.43,92.92v70.97h-21.46Z"/>
        <path class="cls-2" d="M791.1,220.21c-12.36,0-23.86-1.95-34.51-5.85-10.65-3.9-20.2-9.75-28.66-17.56l12.68-14.88c6.99,6.02,14.67,10.77,23.05,14.27,8.37,3.5,17.52,5.24,27.44,5.24,12.84,0,22.92-2.64,30.24-7.93,7.32-5.28,10.97-12.4,10.97-21.34,0-5.2-1.18-9.43-3.54-12.68-2.36-3.25-5.57-5.89-9.63-7.93-4.07-2.03-8.66-3.57-13.78-4.63-5.12-1.06-10.45-2.07-15.97-3.05-6.83-1.14-13.66-2.52-20.49-4.15-6.83-1.62-13.13-4.06-18.9-7.32-5.77-3.25-10.41-7.64-13.9-13.17-3.5-5.53-5.24-12.84-5.24-21.95s2.52-17.68,7.56-24.75c5.04-7.07,12.15-12.52,21.34-16.34,9.18-3.82,20.04-5.73,32.56-5.73,23.41,0,42.92,6.83,58.53,20.49l-12.68,14.88c-6.34-5.04-13.29-9.06-20.85-12.07-7.56-3.01-15.89-4.51-25-4.51-12.36,0-22.11,2.48-29.27,7.44-7.16,4.96-10.73,11.75-10.73,20.36,0,5.04,1.13,9.11,3.41,12.19,2.27,3.09,5.4,5.57,9.39,7.44,3.98,1.87,8.45,3.33,13.41,4.39,4.96,1.06,10.2,2.07,15.73,3.05,6.83,1.14,13.74,2.52,20.73,4.15,6.99,1.63,13.41,4.07,19.27,7.32,5.85,3.25,10.57,7.77,14.15,13.54,3.57,5.77,5.37,13.29,5.37,22.56,0,9.92-2.56,18.5-7.68,25.73-5.12,7.24-12.36,12.85-21.71,16.83-9.35,3.98-20.45,5.98-33.29,5.98Z"/>
        <path class="cls-2" d="M945.47,217.28V72.17h-55.61v-18.78h132.92v18.78h-55.61v145.11h-21.71Z"/>
        <path class="cls-2" d="M1070.34,217.28V53.39h21.71v163.89h-21.71Z"/>
        <path class="cls-2" d="M1139.11,217.28l61.7-84.14-58.78-79.75h25.12l48.04,65.36,47.8-65.36h25.36l-59.02,79.75,61.95,84.14h-25.61l-50.48-69.75-50.73,69.75h-25.36Z"/>
      </g>
    </g>
  </g>
</svg>